<?xml version="1.0" encoding="UTF-8"?>
<!DOCTYPE svg PUBLIC "-//W3C//DTD SVG 1.1//EN" "http://www.w3.org/Graphics/SVG/1.1/DTD/svg11.dtd">
<svg xmlns="http://www.w3.org/2000/svg" version="1.1" width="3840px" height="2160px" style="shape-rendering:geometricPrecision; text-rendering:geometricPrecision; image-rendering:optimizeQuality; fill-rule:evenodd; clip-rule:evenodd" xmlns:xlink="http://www.w3.org/1999/xlink">
<g><path style="opacity:1" fill="#4284f3" d="M 2791.5,52.5 C 2681.67,53.4995 2571.67,53.8328 2461.5,53.5C 2461.5,215.5 2461.5,377.5 2461.5,539.5C 2101.5,539.5 1741.5,539.5 1381.5,539.5C 1381.5,899.5 1381.5,1259.5 1381.5,1619.5C 1219.5,1619.5 1057.5,1619.5 895.5,1619.5C 895.5,1729.83 895.5,1840.17 895.5,1950.5C 894.333,1369.67 894.167,788.667 895,207.5C 902.098,134.107 940.264,84.9403 1009.5,60C 1022.5,56.362 1035.67,53.862 1049,52.5C 1629.63,52.5008 2210.46,52.5008 2791.5,52.5 Z"/></g>
<g><path style="opacity:1" fill="#1b68d1" d="M 2791.5,52.5 C 2864.03,59.1879 2913.53,96.5212 2940,164.5C 2943.12,174.656 2945.46,184.989 2947,195.5C 2948.16,434.819 2948.66,674.152 2948.5,913.5C 2948.5,1149 2948.17,1384.33 2947.5,1619.5C 2947.5,1259.5 2947.5,899.5 2947.5,539.5C 2785.5,539.5 2623.5,539.5 2461.5,539.5C 2461.5,377.5 2461.5,215.5 2461.5,53.5C 2571.67,53.8328 2681.67,53.4995 2791.5,52.5 Z"/></g>
<g><path style="opacity:1" fill="#fabc03" d="M 2461.5,539.5 C 2623.5,539.5 2785.5,539.5 2947.5,539.5C 2947.5,899.5 2947.5,1259.5 2947.5,1619.5C 2785.5,1619.5 2623.5,1619.5 2461.5,1619.5C 2461.5,1259.5 2461.5,899.5 2461.5,539.5 Z"/></g>
<g><path style="opacity:1" fill="#4184f3" d="M 1710.5,760.5 C 1765.09,756.235 1815.43,769.401 1861.5,800C 1870.95,808.777 1880.45,817.611 1890,826.5C 1927.96,873.649 1937.96,926.316 1920,984.5C 1913.87,999.43 1906.2,1013.43 1897,1026.5C 1885.03,1039.81 1871.86,1051.65 1857.5,1062C 1853.55,1063.31 1849.89,1065.14 1846.5,1067.5C 1845.53,1069.74 1845.19,1072.08 1845.5,1074.5C 1852.71,1077.1 1859.71,1080.27 1866.5,1084C 1929.02,1122.05 1956.52,1177.88 1949,1251.5C 1944.9,1280.48 1934.9,1307.14 1919,1331.5C 1912.88,1337.61 1907.55,1344.28 1903,1351.5C 1865.81,1388.17 1820.98,1410 1768.5,1417C 1699.23,1425.62 1636.56,1406.96 1580.5,1361C 1570.22,1349.59 1560.05,1338.09 1550,1326.5C 1536.02,1305.54 1525.52,1282.87 1518.5,1258.5C 1518.71,1257.91 1519.04,1257.41 1519.5,1257C 1550.46,1245.03 1581.12,1232.19 1611.5,1218.5C 1617.47,1237.1 1625.63,1254.77 1636,1271.5C 1671.78,1315.65 1717.28,1330.15 1772.5,1315C 1802.63,1305.54 1824.8,1286.7 1839,1258.5C 1856.33,1198 1836.17,1155.5 1778.5,1131C 1766.36,1126.34 1753.86,1123.5 1741,1122.5C 1717.37,1122.52 1693.54,1122.52 1669.5,1122.5C 1669.33,1091.5 1669.5,1060.5 1670,1029.5C 1688.47,1028.55 1706.81,1028.55 1725,1029.5C 1754.06,1027.87 1779.56,1017.54 1801.5,998.5C 1823.71,973.609 1830.21,944.942 1821,912.5C 1817.35,903.196 1812.68,894.529 1807,886.5C 1772.38,855.644 1732.88,847.477 1688.5,862C 1658.44,876.058 1638.28,898.892 1628,930.5C 1627.44,931.022 1626.77,931.355 1626,931.5C 1599.03,919.735 1571.86,908.569 1544.5,898C 1540.91,896.366 1537.58,894.366 1534.5,892C 1541.03,872.773 1550.53,855.273 1563,839.5C 1576.82,822.685 1592.32,807.518 1609.5,794C 1618.07,789.767 1626.4,785.1 1634.5,780C 1658.6,768.143 1683.93,761.643 1710.5,760.5 Z"/></g>
<g><path style="opacity:1" fill="#4184f3" d="M 2210.5,774.5 C 2233.15,775.494 2255.99,775.828 2279,775.5C 2279.5,984.833 2279.67,1194.17 2279.5,1403.5C 2245.5,1403.5 2211.5,1403.5 2177.5,1403.5C 2177.83,1240.17 2177.5,1076.83 2176.5,913.5C 2164,922.84 2151.67,932.34 2139.5,942C 2137.91,942.862 2136.25,943.529 2134.5,944C 2115.57,958.775 2096.23,972.942 2076.5,986.5C 2067.1,975.37 2058.93,963.37 2052,950.5C 2042.5,936.833 2033,923.167 2023.5,909.5C 2085.38,863.74 2147.71,818.74 2210.5,774.5 Z"/></g>
<g><path style="opacity:1" fill="#188038" d="M 1381.5,1619.5 C 1381.17,1781.9 1381.5,1944.24 1382.5,2106.5C 1271.46,2106.5 1160.63,2106.5 1050,2106.5C 976.378,2099.06 927.045,2060.73 902,1991.5C 897.956,1978.11 895.789,1964.45 895.5,1950.5C 895.5,1840.17 895.5,1729.83 895.5,1619.5C 1057.5,1619.5 1219.5,1619.5 1381.5,1619.5 Z"/></g>
<g><path style="opacity:1" fill="#34a753" d="M 1381.5,1619.5 C 1741.5,1619.5 2101.5,1619.5 2461.5,1619.5C 2461.5,1781.5 2461.5,1943.5 2461.5,2105.5C 2102,2106.5 1742.33,2106.83 1382.5,2106.5C 1381.5,1944.24 1381.17,1781.9 1381.5,1619.5 Z"/></g>
<g><path style="opacity:1" fill="#e94334" d="M 2461.5,1619.5 C 2623.5,1619.5 2785.5,1619.5 2947.5,1619.5C 2785.83,1781.83 2623.83,1943.83 2461.5,2105.5C 2461.5,1943.5 2461.5,1781.5 2461.5,1619.5 Z"/></g>
</svg>
